<?xml version="1.0" standalone="no"?>
<!DOCTYPE svg PUBLIC "-//W3C//DTD SVG 20010904//EN"
 "http://www.w3.org/TR/2001/REC-SVG-20010904/DTD/svg10.dtd">
<svg version="1.0" xmlns="http://www.w3.org/2000/svg"
 width="32.000000pt" height="32.000000pt" viewBox="0 0 32.000000 32.000000"
 preserveAspectRatio="xMidYMid meet">

<g transform="translate(0.000000,32.000000) scale(0.100000,-0.100000)"
fill="#000000" stroke="none">
<path d="M0 160 l0 -160 160 0 160 0 0 160 0 160 -160 0 -160 0 0 -160z m181
131 c21 -17 22 -21 10 -50 -8 -17 -17 -31 -21 -31 -12 0 -19 26 -13 49 8 30
-8 26 -46 -13 -37 -38 -56 -116 -29 -116 9 0 21 6 27 14 9 11 7 15 -9 19 -32
8 -23 25 18 31 20 2 44 4 52 4 8 0 27 3 41 6 30 9 59 -14 59 -45 0 -28 -52
-78 -90 -85 -21 -5 -36 -17 -48 -38 l-17 -31 -3 27 c-2 15 4 40 12 56 l15 29
-42 -1 c-36 -1 -43 3 -55 27 -12 25 -11 33 10 75 20 40 75 92 98 92 4 0 18 -8
31 -19z"/>
<path d="M187 139 c-10 -18 -16 -34 -14 -36 6 -6 67 47 67 58 0 22 -37 6 -53
-22z"/>
</g>
</svg>
